<?xml version="1.0" encoding="utf-8"?>
<!-- Generator: Adobe Illustrator 16.0.0, SVG Export Plug-In . SVG Version: 6.00 Build 0)  -->
<!DOCTYPE svg PUBLIC "-//W3C//DTD SVG 1.1//EN" "http://www.w3.org/Graphics/SVG/1.1/DTD/svg11.dtd">
<svg version="1.1" id="Layer_1" xmlns="http://www.w3.org/2000/svg" xmlns:xlink="http://www.w3.org/1999/xlink" x="0px" y="0px"
	 width="77.497px" height="45px" viewBox="0 0 77.497 45" enable-background="new 0 0 77.497 45" xml:space="preserve">
<g>
	<defs>
		<rect id="SVGID_1_" width="77.497" height="45"/>
	</defs>
	<clipPath id="SVGID_2_">
		<use xlink:href="#SVGID_1_"  overflow="visible"/>
	</clipPath>
	<path clip-path="url(#SVGID_2_)" fill="#FFFFFF" d="M77.186,21.637l-20-21.249c-0.484-0.505-1.312-0.509-1.777-0.058
		c-0.474,0.457-0.509,1.297-0.059,1.777l18.007,19.14H1.25c-0.691,0-1.25,0.56-1.25,1.251c0,0.689,0.559,1.25,1.25,1.25h72.106
		L55.35,42.888c-0.45,0.48-0.422,1.328,0.059,1.778c0.48,0.449,1.254,0.461,1.777-0.06l20-21.249c0.475-0.584,0.351-1.302,0-1.717
		V21.637z"/>
</g>
</svg>
