<?xml version="1.0" encoding="utf-8"?>
<!-- Generator: Adobe Illustrator 16.0.0, SVG Export Plug-In . SVG Version: 6.00 Build 0)  -->
<!DOCTYPE svg PUBLIC "-//W3C//DTD SVG 1.1//EN" "http://www.w3.org/Graphics/SVG/1.1/DTD/svg11.dtd">
<svg version="1.1" id="Layer_1" xmlns="http://www.w3.org/2000/svg" xmlns:xlink="http://www.w3.org/1999/xlink" x="0px" y="0px"
	 width="30.693px" height="18.417px" viewBox="0 0 30.693 18.417" enable-background="new 0 0 30.693 18.417" xml:space="preserve">
<g>
	<defs>
		<rect id="SVGID_1_" y="0" width="30.694" height="18.417"/>
	</defs>
	<clipPath id="SVGID_2_">
		<use xlink:href="#SVGID_1_"  overflow="visible"/>
	</clipPath>
	<path clip-path="url(#SVGID_2_)" fill="#111111" d="M29.867,8.883l-7.555-8.027c-0.183-0.191-0.496-0.193-0.672-0.022
		c-0.179,0.172-0.192,0.49-0.022,0.671l6.804,7.231H1.181c-0.26,0-0.472,0.211-0.472,0.472S0.92,9.68,1.181,9.68h27.241l-6.804,7.23
		c-0.17,0.183-0.159,0.502,0.022,0.672c0.181,0.17,0.474,0.174,0.672-0.021l7.555-8.028C30.048,9.312,30,9.041,29.867,8.883
		L29.867,8.883z"/>
	<path clip-path="url(#SVGID_2_)" fill="none" stroke="#FFFFFF" stroke-width="1.417" stroke-miterlimit="10" d="M29.867,8.883
		l-7.555-8.027c-0.183-0.191-0.496-0.193-0.672-0.022c-0.179,0.172-0.192,0.49-0.022,0.671l6.804,7.231H1.181
		c-0.26,0-0.472,0.211-0.472,0.472S0.92,9.68,1.181,9.68h27.241l-6.804,7.23c-0.17,0.183-0.159,0.502,0.022,0.672
		c0.181,0.17,0.474,0.174,0.672-0.021l7.555-8.028C30.048,9.312,30,9.041,29.867,8.883L29.867,8.883z"/>
</g>
</svg>
